v -0.446582 0.777053 -0
v -0.386751 0.777053 -0.223291
v -0.223291 0.777053 -0.386751
v 1.95207e-08 0.777053 -0.446582
v 0.223291 0.777053 -0.386751
v 0.386751 0.777053 -0.223291
v 0.446582 0.777053 3.90414e-08
v 0.386751 0.777053 0.223291
v 0.223291 0.777053 0.386751
v -5.32544e-09 0.777053 0.446582
v -0.223291 0.777053 0.386751
v -0.386751 0.777053 0.223291
v -0.946754 0.415321 -0
v -0.819913 0.415321 -0.473377
v -0.473377 0.415321 -0.819913
v 4.13839e-08 0.415321 -0.946754
v 0.473377 0.415321 -0.819913
v 0.819913 0.415321 -0.473377
v 0.946754 0.415321 8.27678e-08
v 0.819913 0.415321 0.473377
v 0.473377 0.415321 0.819913
v -1.12899e-08 0.415321 0.946754
v -0.473377 0.415321 0.819913
v -0.819913 0.415321 0.473377
v -0.54483 -0.259018 -0
v -0.471837 -0.259018 -0.272415
v -0.272415 -0.259018 -0.471837
v 2.38153e-08 -0.259018 -0.54483
v 0.272415 -0.259018 -0.471837
v 0.471837 -0.259018 -0.272415
v 0.54483 -0.259018 4.76306e-08
v 0.471837 -0.259018 0.272415
v 0.272415 -0.259018 0.471837
v -6.49703e-09 -0.259018 0.54483
v -0.272415 -0.259018 0.471837
v -0.471837 -0.259018 0.272415
v -0.388526 -0.589488 -0
v -0.336474 -0.589488 -0.194263
v -0.194263 -0.589488 -0.336474
v 1.6983e-08 -0.589488 -0.388526
v 0.194263 -0.589488 -0.336474
v 0.336474 -0.589488 -0.194263
v 0.388526 -0.589488 3.3966e-08
v 0.336474 -0.589488 0.194263
v 0.194263 -0.589488 0.336474
v -4.63313e-09 -0.589488 0.388526
v -0.194263 -0.589488 0.336474
v -0.336474 -0.589488 0.194263
v -0.911027 -0.933356 -0
v -0.788973 -0.933356 -0.455514
v -0.455514 -0.933356 -0.788973
v 3.98223e-08 -0.933356 -0.911027
v 0.455514 -0.933356 -0.788973
v 0.788973 -0.933356 -0.455514
v 0.911027 -0.933356 7.96445e-08
v 0.788973 -0.933356 0.455514
v 0.455514 -0.933356 0.788973
v -1.08639e-08 -0.933356 0.911027
v -0.455514 -0.933356 0.788973
v -0.788973 -0.933356 0.455513
vn -0.584115 0.807665 0.0805358
vn -0.546127 0.807665 -0.222311
vn -0.361804 0.807665 -0.465591
vn -0.0805359 0.807665 -0.584115
vn 0.222311 0.807665 -0.546127
vn 0.465591 0.807666 -0.361804
vn 0.584115 0.807665 -0.0805358
vn 0.546127 0.807665 0.222312
vn 0.361804 0.807665 0.465591
vn 0.0805359 0.807665 0.584115
vn -0.222311 0.807665 0.546127
vn -0.465591 0.807665 0.361804
vn -0.996847 0.0762103 0.0220757
vn -0.874333 0.0762103 -0.479305
vn -0.517542 0.0762102 -0.852257
vn -0.0220758 0.0762103 -0.996847
vn 0.479305 0.0762103 -0.874333
vn 0.852257 0.0762102 -0.517542
vn 0.996847 0.0762102 -0.0220757
vn 0.874333 0.0762102 0.479306
vn 0.517542 0.0762102 0.852257
vn 0.0220758 0.0762102 0.996847
vn -0.479306 0.0762103 0.874333
vn -0.852257 0.0762101 0.517542
vn -0.869339 -0.49008 -0.0638156
vn -0.720962 -0.49008 -0.489935
vn -0.379403 -0.49008 -0.784777
vn 0.0638155 -0.49008 -0.869339
vn 0.489935 -0.49008 -0.720962
vn 0.784777 -0.49008 -0.379403
vn 0.869338 -0.49008 0.0638156
vn 0.720962 -0.49008 0.489935
vn 0.379403 -0.49008 0.784777
vn -0.0638154 -0.49008 0.869339
vn -0.489935 -0.49008 0.720961
vn -0.784777 -0.49008 0.379404
vn -0.832753 0.552872 0.0292205
vn -0.735796 0.552872 -0.391071
vn -0.441683 0.552873 -0.706575
vn -0.0292206 0.552873 -0.832753
vn 0.391071 0.552873 -0.735796
vn 0.706575 0.552872 -0.441682
vn 0.832753 0.552872 -0.0292206
vn 0.735796 0.552873 0.391071
vn 0.441682 0.552873 0.706575
vn 0.0292206 0.552872 0.832753
vn -0.391071 0.552872 0.735796
vn -0.706575 0.552873 0.441682
vn -0.549563 0.835051 -0.0258813
vn -0.462995 0.835051 -0.297195
vn -0.252368 0.835051 -0.488877
vn 0.0258812 0.835051 -0.549563
vn 0.297195 0.835051 -0.462995
vn 0.488877 0.835051 -0.252368
vn 0.549563 0.835051 0.0258813
vn 0.462995 0.835051 0.297196
vn 0.252368 0.835051 0.488877
vn -0.0258812 0.835051 0.549563
vn -0.297196 0.835051 0.462995
vn -0.488876 0.835051 0.252368
f 1//1 2//2 13//13 
f 2//2 14//14 13//13 
f 2//2 3//3 14//14 
f 3//3 15//15 14//14 
f 3//3 4//4 15//15 
f 4//4 16//16 15//15 
f 4//4 5//5 16//16 
f 5//5 17//17 16//16 
f 5//5 6//6 17//17 
f 6//6 18//18 17//17 
f 6//6 7//7 18//18 
f 7//7 19//19 18//18 
f 7//7 8//8 19//19 
f 8//8 20//20 19//19 
f 8//8 9//9 20//20 
f 9//9 21//21 20//20 
f 9//9 10//10 21//21 
f 10//10 22//22 21//21 
f 10//10 11//11 22//22 
f 11//11 23//23 22//22 
f 11//11 12//12 23//23 
f 12//12 24//24 23//23 
f 12//12 1//1 24//24 
f 1//1 13//13 24//24 
f 13//13 14//14 25//25 
f 14//14 26//26 25//25 
f 14//14 15//15 26//26 
f 15//15 27//27 26//26 
f 15//15 16//16 27//27 
f 16//16 28//28 27//27 
f 16//16 17//17 28//28 
f 17//17 29//29 28//28 
f 17//17 18//18 29//29 
f 18//18 30//30 29//29 
f 18//18 19//19 30//30 
f 19//19 31//31 30//30 
f 19//19 20//20 31//31 
f 20//20 32//32 31//31 
f 20//20 21//21 32//32 
f 21//21 33//33 32//32 
f 21//21 22//22 33//33 
f 22//22 34//34 33//33 
f 22//22 23//23 34//34 
f 23//23 35//35 34//34 
f 23//23 24//24 35//35 
f 24//24 36//36 35//35 
f 24//24 13//13 36//36 
f 13//13 25//25 36//36 
f 25//25 26//26 37//37 
f 26//26 38//38 37//37 
f 26//26 27//27 38//38 
f 27//27 39//39 38//38 
f 27//27 28//28 39//39 
f 28//28 40//40 39//39 
f 28//28 29//29 40//40 
f 29//29 41//41 40//40 
f 29//29 30//30 41//41 
f 30//30 42//42 41//41 
f 30//30 31//31 42//42 
f 31//31 43//43 42//42 
f 31//31 32//32 43//43 
f 32//32 44//44 43//43 
f 32//32 33//33 44//44 
f 33//33 45//45 44//44 
f 33//33 34//34 45//45 
f 34//34 46//46 45//45 
f 34//34 35//35 46//46 
f 35//35 47//47 46//46 
f 35//35 36//36 47//47 
f 36//36 48//48 47//47 
f 36//36 25//25 48//48 
f 25//25 37//37 48//48 
f 37//37 38//38 49//49 
f 38//38 50//50 49//49 
f 38//38 39//39 50//50 
f 39//39 51//51 50//50 
f 39//39 40//40 51//51 
f 40//40 52//52 51//51 
f 40//40 41//41 52//52 
f 41//41 53//53 52//52 
f 41//41 42//42 53//53 
f 42//42 54//54 53//53 
f 42//42 43//43 54//54 
f 43//43 55//55 54//54 
f 43//43 44//44 55//55 
f 44//44 56//56 55//55 
f 44//44 45//45 56//56 
f 45//45 57//57 56//56 
f 45//45 46//46 57//57 
f 46//46 58//58 57//57 
f 46//46 47//47 58//58 
f 47//47 59//59 58//58 
f 47//47 48//48 59//59 
f 48//48 60//60 59//59 
f 48//48 37//37 60//60 
f 37//37 49//49 60//60 
